# xmcd
#
# Track frame offsets: 
#        150
#        18311
#        34089
#        48795
#        60180
#        77267
#        96665
#        122446
#        139068
#        157216
#        170770
#        184742
#        200652
#
# Disc length: 3119 seconds
#
# Revision: 1
# Processed by: cddbd v1.5.2PL0 Copyright (c) Steve Scherf et al.
# Submitted via: ExactAudioCopy v0.99pb4
#
DISCID=a80c2d0d
DTITLE=Johnnie Marshall and His Blues Buddies - 98c In The Bank
DYEAR=2002
DGENRE=Blues
TTITLE0=98c In The Bank
TTITLE1=That's Where I Stay
TTITLE2=Don't Put Me Down
TTITLE3=I'm In Love With A Woman
TTITLE4=When You Want The Blues
TTITLE5=Down On My Knees
TTITLE6=That Ain't Right
TTITLE7=Cool Claytor
TTITLE8=Don't Do Me Wrong
TTITLE9=I Can't Afford To Live
TTITLE10=Hard Lovin' Man
TTITLE11=I'm A Good Man
TTITLE12=98c In The Bank
EXTD=
EXTT0=
EXTT1=
EXTT2=
EXTT3=
EXTT4=
EXTT5=
EXTT6=
EXTT7=
EXTT8=
EXTT9=
EXTT10=
EXTT11=
EXTT12=
PLAYORDER=
